<svg xmlns="http://www.w3.org/2000/svg" viewBox="0 0 64 64" role="img" aria-label="Better Bioinformatics logo">
  <defs>
    <linearGradient id="bb-bg" x1="0" y1="0" x2="64" y2="64" gradientUnits="userSpaceOnUse">
      <stop offset="0" stop-color="#2A3F63"/>
      <stop offset="1" stop-color="#1B2740"/>
    </linearGradient>
  </defs>
  <rect x="1" y="1" width="62" height="62" rx="16" fill="url(#bb-bg)"/>
  <g fill="none" stroke-linecap="round" stroke-linejoin="round">
    <path d="M32.00 5.00 L33.79 5.60 L35.55 6.20 L37.22 6.80 L38.78 7.40 L40.18 8.00 L41.40 8.60 L42.41 9.20 L43.19 9.80 L43.71 10.40 L43.97 11.00 L43.96 11.60 L43.68 12.20 L43.14 12.80 L42.35 13.40 L41.33 14.00 L40.09 14.60 L38.68 15.20 L37.11 15.80 L35.43 16.40 L33.67 17.00 L31.87 17.60 L30.08 18.20 L28.33 18.80 L26.66 19.40 L25.12 20.00 L23.72 20.60 L22.52 21.20 L21.52 21.80 L20.77 22.40 L20.26 23.00 L20.02 23.60 L20.05 24.20 L20.35 24.80 L20.91 25.40 L21.71 26.00 L22.75 26.60 L24.00 27.20 L25.43 27.80 L27.00 28.40 L28.69 29.00 L30.45 29.60 L32.25 30.20 L34.04 30.80 L35.79 31.40 L37.45 32.00 L38.99 32.60 L40.37 33.20 L41.56 33.80 L42.54 34.40 L43.28 35.00 L43.76 35.60 L43.99 36.20 L43.94 36.80 L43.62 37.40 L43.05 38.00 L42.22 38.60 L41.17 39.20 L39.90 39.80 L38.47 40.40 L36.88 41.00 L35.19 41.60 L33.42 42.20 L31.62 42.80 L29.83 43.40 L28.09 44.00 L26.44 44.60 L24.91 45.20 L23.54 45.80 L22.37 46.40 L21.40 47.00 L20.68 47.60 L20.21 48.20 L20.01 48.80 L20.07 49.40 L20.41 50.00 L21.00 50.60 L21.85 51.20 L22.92 51.80 L24.19 52.40 L25.64 53.00 L27.23 53.60 L28.93 54.20 L30.70 54.80 L32.50 55.40 L34.29 56.00 L36.03 56.60 L37.67 57.20 L39.19 57.80 L40.54 58.40 L41.71 59.00"
      stroke="#A8C6E3" stroke-width="2.1"/>
    <path d="M32.00 5.00 L30.21 5.60 L28.45 6.20 L26.78 6.80 L25.22 7.40 L23.82 8.00 L22.60 8.60 L21.59 9.20 L20.81 9.80 L20.29 10.40 L20.03 11.00 L20.04 11.60 L20.32 12.20 L20.86 12.80 L21.65 13.40 L22.67 14.00 L23.91 14.60 L25.32 15.20 L26.89 15.80 L28.57 16.40 L30.33 17.00 L32.13 17.60 L33.92 18.20 L35.67 18.80 L37.34 19.40 L38.88 20.00 L40.28 20.60 L41.48 21.20 L42.48 21.80 L43.23 22.40 L43.74 23.00 L43.98 23.60 L43.95 24.20 L43.65 24.80 L43.09 25.40 L42.29 26.00 L41.25 26.60 L40.00 27.20 L38.57 27.80 L37.00 28.40 L35.31 29.00 L33.55 29.60 L31.75 30.20 L29.96 30.80 L28.21 31.40 L26.55 32.00 L25.01 32.60 L23.63 33.20 L22.44 33.80 L21.46 34.40 L20.72 35.00 L20.24 35.60 L20.01 36.20 L20.06 36.80 L20.38 37.40 L20.95 38.00 L21.78 38.60 L22.83 39.20 L24.10 39.80 L25.53 40.40 L27.12 41.00 L28.81 41.60 L30.58 42.20 L32.38 42.80 L34.17 43.40 L35.91 44.00 L37.56 44.60 L39.09 45.20 L40.46 45.80 L41.63 46.40 L42.60 47.00 L43.32 47.60 L43.79 48.20 L43.99 48.80 L43.93 49.40 L43.59 50.00 L43.00 50.60 L42.15 51.20 L41.08 51.80 L39.81 52.40 L38.36 53.00 L36.77 53.60 L35.07 54.20 L33.30 54.80 L31.50 55.40 L29.71 56.00 L27.97 56.60 L26.33 57.20 L24.81 57.80 L23.46 58.40 L22.29 59.00"
      stroke="#5B85B8" stroke-width="2.1"/>
    <line x1="43.97" y1="11.00" x2="20.03" y2="11.00" stroke="#E8F1FA" stroke-width="1.6"/>
    <line x1="20.02" y1="23.60" x2="43.98" y2="23.60" stroke="#C0392B" stroke-width="2.1"/>
    <line x1="43.99" y1="36.20" x2="20.01" y2="36.20" stroke="#E8F1FA" stroke-width="1.6"/>
    <line x1="20.01" y1="48.80" x2="43.99" y2="48.80" stroke="#E8F1FA" stroke-width="1.6"/>
  </g>
</svg>
